HIERARCHY
ROOT Hips
{
	OFFSET 0.000000 100.481300 0.000000
	CHANNELS 6 Xposition Yposition Zposition Xrotation Yrotation Zrotation 
	JOINT Spine
	{
		OFFSET -0.279200 12.230698 -2.892100
		CHANNELS 3 Xrotation Yrotation Zrotation
		JOINT Spine1
		{
			OFFSET -0.232667 10.192268 -1.242267
			CHANNELS 3 Xrotation Yrotation Zrotation
			JOINT Spine1_split
			{
				OFFSET -0.232667 10.192268 -1.242267
				CHANNELS 3 Xrotation Yrotation Zrotation
				JOINT Spine2
				{
					OFFSET -0.232667 10.192268 -1.242267
					CHANNELS 3 Xrotation Yrotation Zrotation
					JOINT Neck
					{
						OFFSET -0.418800 17.814194 8.416900
						CHANNELS 3 Xrotation Yrotation Zrotation
						JOINT Head
						{
							OFFSET 0.000000 7.031097 3.806800
							CHANNELS 3 Xrotation Yrotation Zrotation
							JOINT HeadTop_End
							{
								OFFSET 0.000000 24.646606 12.978600
								CHANNELS 3 Xrotation Yrotation Zrotation
								End Site
								{
									OFFSET 0.000000 0.000000 0.000000
								}
							}
						}
					}
					JOINT LeftShoulder
					{
						OFFSET 8.476499 7.247704 -3.868750
						CHANNELS 3 Xrotation Yrotation Zrotation
						JOINT LeftShoulder_split
						{
							OFFSET 8.476499 7.247704 -3.868750
							CHANNELS 3 Xrotation Yrotation Zrotation
							JOINT LeftArm
							{
								OFFSET 9.308998 -2.777710 0.208600
								CHANNELS 3 Xrotation Yrotation Zrotation
								JOINT LeftForeArm
								{
									OFFSET 29.972298 0.000000 0.000000
									CHANNELS 3 Xrotation Yrotation Zrotation
									JOINT LeftHand
									{
										OFFSET 26.026505 0.000000 0.000000
										CHANNELS 3 Xrotation Yrotation Zrotation
										JOINT LeftHandThumb1
										{
											OFFSET 12.240501 -7.147949 9.207150
											CHANNELS 3 Xrotation Yrotation Zrotation
											JOINT LeftHandThumb2
											{
												OFFSET 4.138618 -2.389435 2.389433
												CHANNELS 3 Xrotation Yrotation Zrotation
												JOINT LeftHandThumb3
												{
													OFFSET 2.726913 -1.574387 1.574386
													CHANNELS 3 Xrotation Yrotation Zrotation
													JOINT LeftHandThumb4
													{
														OFFSET 3.941010 -2.275345 2.275342
														CHANNELS 3 Xrotation Yrotation Zrotation
														End Site
														{
															OFFSET 0.000000 0.000000 0.000000
														}
													}
												}
											}
										}
										JOINT LeftHandIndex1
										{
											OFFSET 24.424698 -1.985611 5.953459
											CHANNELS 3 Xrotation Yrotation Zrotation
											JOINT LeftHandIndex2
											{
												OFFSET 6.426697 0.000000 0.000000
												CHANNELS 3 Xrotation Yrotation Zrotation
												JOINT LeftHandIndex3
												{
													OFFSET 5.337898 0.000000 0.000000
													CHANNELS 3 Xrotation Yrotation Zrotation
													JOINT LeftHandIndex4
													{
														OFFSET 4.409401 0.000000 0.000000
														CHANNELS 3 Xrotation Yrotation Zrotation
														End Site
														{
															OFFSET 0.000000 0.000000 0.000000
														}
													}
												}
											}
										}
										JOINT LeftHandMiddle1
										{
											OFFSET 23.810104 0.000000 0.000000
											CHANNELS 3 Xrotation Yrotation Zrotation
											JOINT LeftHandMiddle2
											{
												OFFSET 7.176498 0.000000 0.000000
												CHANNELS 3 Xrotation Yrotation Zrotation
												JOINT LeftHandMiddle3
												{
													OFFSET 6.774902 0.000000 0.000000
													CHANNELS 3 Xrotation Yrotation Zrotation
													JOINT LeftHandMiddle4
													{
														OFFSET 5.403328 0.000000 0.000000
														CHANNELS 3 Xrotation Yrotation Zrotation
														End Site
														{
															OFFSET 0.000000 0.000000 0.000000
														}
													}
												}
											}
										}
										JOINT LeftHandRing1
										{
											OFFSET 22.908401 -0.839279 -6.020567
											CHANNELS 3 Xrotation Yrotation Zrotation
											JOINT LeftHandRing2
											{
												OFFSET 6.337502 0.000000 0.000000
												CHANNELS 3 Xrotation Yrotation Zrotation
												JOINT LeftHandRing3
												{
													OFFSET 5.779297 0.000000 0.000000
													CHANNELS 3 Xrotation Yrotation Zrotation
													JOINT LeftHandRing4
													{
														OFFSET 4.965698 0.000000 0.000000
														CHANNELS 3 Xrotation Yrotation Zrotation
														End Site
														{
															OFFSET 0.000000 0.000000 0.000000
														}
													}
												}
											}
										}
										JOINT LeftHandPinky1
										{
											OFFSET 20.037003 -1.530319 -10.950146
											CHANNELS 3 Xrotation Yrotation Zrotation
											JOINT LeftHandPinky2
											{
												OFFSET 5.254700 0.000000 0.000000
												CHANNELS 3 Xrotation Yrotation Zrotation
												JOINT LeftHandPinky3
												{
													OFFSET 4.810204 0.000000 0.000000
													CHANNELS 3 Xrotation Yrotation Zrotation
													JOINT LeftHandPinky4
													{
														OFFSET 3.647202 0.000000 0.000000
														CHANNELS 3 Xrotation Yrotation Zrotation
														End Site
														{
															OFFSET 0.000000 0.000000 0.000000
														}
													}
												}
											}
										}
									}
								}
							}
						}
					}
					JOINT RightShoulder
					{
						OFFSET -7.570500 7.247704 -3.868750
						CHANNELS 3 Xrotation Yrotation Zrotation
						JOINT RightShoulder_split
						{
							OFFSET -7.570500 7.247704 -3.868750
							CHANNELS 3 Xrotation Yrotation Zrotation
							JOINT RightArm
							{
								OFFSET -9.308998 -2.777710 0.208500
								CHANNELS 3 Xrotation Yrotation Zrotation
								JOINT RightForeArm
								{
									OFFSET -29.972300 0.000000 0.000000
									CHANNELS 3 Xrotation Yrotation Zrotation
									JOINT RightHand
									{
										OFFSET -26.026505 0.000000 0.000000
										CHANNELS 3 Xrotation Yrotation Zrotation
										JOINT RightHandThumb1
										{
											OFFSET -12.240601 -7.148026 9.207092
											CHANNELS 3 Xrotation Yrotation Zrotation
											JOINT RightHandThumb2
											{
												OFFSET -4.138618 -2.389435 2.389433
												CHANNELS 3 Xrotation Yrotation Zrotation
												JOINT RightHandThumb3
												{
													OFFSET -2.726974 -1.574417 1.574421
													CHANNELS 3 Xrotation Yrotation Zrotation
													JOINT RightHandThumb4
													{
														OFFSET -3.941010 -2.275345 2.275343
														CHANNELS 3 Xrotation Yrotation Zrotation
														End Site
														{
															OFFSET 0.000000 0.000000 0.000000
														}
													}
												}
											}
										}
										JOINT RightHandIndex1
										{
											OFFSET -24.424698 -1.985657 5.953444
											CHANNELS 3 Xrotation Yrotation Zrotation
											JOINT RightHandIndex2
											{
												OFFSET -6.426697 0.000000 0.000000
												CHANNELS 3 Xrotation Yrotation Zrotation
												JOINT RightHandIndex3
												{
													OFFSET -5.337898 0.000000 0.000000
													CHANNELS 3 Xrotation Yrotation Zrotation
													JOINT RightHandIndex4
													{
														OFFSET -4.409401 0.000000 0.000000
														CHANNELS 3 Xrotation Yrotation Zrotation
														End Site
														{
															OFFSET 0.000000 0.000000 0.000000
														}
													}
												}
											}
										}
										JOINT RightHandMiddle1
										{
											OFFSET -23.810097 0.000000 0.000000
											CHANNELS 3 Xrotation Yrotation Zrotation
											JOINT RightHandMiddle2
											{
												OFFSET -7.176498 0.000000 0.000000
												CHANNELS 3 Xrotation Yrotation Zrotation
												JOINT RightHandMiddle3
												{
													OFFSET -6.774902 0.000000 0.000000
													CHANNELS 3 Xrotation Yrotation Zrotation
													JOINT RightHandMiddle4
													{
														OFFSET -5.403328 0.000000 0.000000
														CHANNELS 3 Xrotation Yrotation Zrotation
														End Site
														{
															OFFSET 0.000000 0.000000 0.000000
														}
													}
												}
											}
										}
										JOINT RightHandRing1
										{
											OFFSET -22.908302 -0.839325 -6.020576
											CHANNELS 3 Xrotation Yrotation Zrotation
											JOINT RightHandRing2
											{
												OFFSET -6.337502 0.000000 0.000000
												CHANNELS 3 Xrotation Yrotation Zrotation
												JOINT RightHandRing3
												{
													OFFSET -5.779297 0.000000 0.000000
													CHANNELS 3 Xrotation Yrotation Zrotation
													JOINT RightHandRing4
													{
														OFFSET -4.965698 0.000000 0.000000
														CHANNELS 3 Xrotation Yrotation Zrotation
														End Site
														{
															OFFSET 0.000000 0.000000 0.000000
														}
													}
												}
											}
										}
										JOINT RightHandPinky1
										{
											OFFSET -20.037003 -1.530334 -10.950259
											CHANNELS 3 Xrotation Yrotation Zrotation
											JOINT RightHandPinky2
											{
												OFFSET -5.254700 0.000000 0.000000
												CHANNELS 3 Xrotation Yrotation Zrotation
												JOINT RightHandPinky3
												{
													OFFSET -4.810204 0.000000 0.000000
													CHANNELS 3 Xrotation Yrotation Zrotation
													JOINT RightHandPinky4
													{
														OFFSET -3.647202 0.000000 0.000000
														CHANNELS 3 Xrotation Yrotation Zrotation
														End Site
														{
															OFFSET 0.000000 0.000000 0.000000
														}
													}
												}
											}
										}
									}
								}
							}
						}
					}
				}
			}
		}
	}
	JOINT LeftUpLeg
	{
		OFFSET 15.427100 -6.655098 0.678600
		CHANNELS 3 Xrotation Yrotation Zrotation
		JOINT LeftLeg
		{
			OFFSET 4.081073 -39.591068 13.024000
			CHANNELS 3 Xrotation Yrotation Zrotation
			JOINT LeftFoot
			{
				OFFSET -4.081074 -37.707932 -15.979700
				CHANNELS 3 Xrotation Yrotation Zrotation
				JOINT LeftToeBase
				{
					OFFSET 5.346399 -15.068900 20.645000
					CHANNELS 3 Xrotation Yrotation Zrotation
					JOINT LeftToe_End
					{
						OFFSET 2.754700 0.931300 11.300900
						CHANNELS 3 Xrotation Yrotation Zrotation
						End Site
						{
							OFFSET 0.000000 0.000000 0.000000
						}
					}
				}
			}
		}
	}
	JOINT RightUpLeg
	{
		OFFSET -15.569500 -6.655098 0.678600
		CHANNELS 3 Xrotation Yrotation Zrotation
		JOINT RightLeg
		{
			OFFSET -4.081825 -39.591045 13.023800
			CHANNELS 3 Xrotation Yrotation Zrotation
			JOINT RightFoot
			{
				OFFSET 4.081824 -37.707954 -15.979600
				CHANNELS 3 Xrotation Yrotation Zrotation
				JOINT RightToeBase
				{
					OFFSET -5.346400 -15.068900 20.645000
					CHANNELS 3 Xrotation Yrotation Zrotation
					JOINT RightToe_End
					{
						OFFSET -2.754700 0.931300 11.300900
						CHANNELS 3 Xrotation Yrotation Zrotation
						End Site
						{
							OFFSET 0.000000 0.000000 0.000000
						}
					}
				}
			}
		}
	}
}
MOTION
Frames: 4
Frame Time: 0.016667
211.829041 36.097618 -37.475536 52.971136 204.538293 227.801111 11.996502 1.794964 4.403983 24.200986 5.707159 2.256766 0.000000 0.000000 0.000000 24.200981 5.707168 2.256776 56.768089 -4.708998 -18.365638 -27.541971 -9.260014 20.113302 -0.000001 -0.000003 -0.000001 0.826487 4.176653 27.061196 0.000000 0.000000 0.000000 -21.500754 -16.600696 -7.566946 0.248445 -108.744740 0.233946 -1.960208 7.066424 19.245284 -3.269886 -2.950317 2.445907 6.363632 5.687388 -6.261535 0.000004 0.000005 -0.000007 0.000001 0.000000 0.000000 -2.181510 1.448988 -9.293704 0.033629 0.552089 -14.681541 -0.000004 -0.000003 0.000000 -0.000001 -0.000002 -0.000000 -0.369297 0.913326 -21.544734 -0.502601 -1.800281 -26.483399 0.000001 0.000009 -0.000003 -0.000001 0.000002 0.000000 -0.931029 3.368092 -28.899189 -0.351980 -2.121505 -21.850815 -0.000003 0.000001 0.000001 0.000001 -0.000000 0.000001 0.523306 5.278440 -26.022918 -0.846849 -5.236645 -31.985441 0.000001 0.000002 0.000003 0.000000 -0.000002 -0.000003 2.759746 8.250653 -10.588911 0.000000 0.000000 0.000000 -57.649044 -5.834115 42.145361 0.058577 119.763378 -0.066506 30.555073 10.082329 -24.848703 6.507422 5.944001 -8.205806 0.308334 -2.673178 -2.026421 -0.000002 0.000007 0.000001 -0.000000 -0.000001 -0.000002 -3.218612 0.338189 -13.313591 0.023739 0.208816 0.000029 -0.000001 -0.000005 -0.000011 -0.000000 -0.000001 -0.000001 -2.741321 -2.097328 -13.344320 0.039708 -0.113988 0.011390 -0.000002 0.000002 0.000011 0.000001 -0.000002 -0.000004 -2.221673 -6.757286 -8.023617 -0.013520 0.271972 -0.000012 0.000000 0.000000 -0.000002 0.000001 -0.000000 0.000002 2.103455 -7.884680 4.939285 -0.291348 5.357232 14.254942 -0.000001 0.000000 -0.000002 0.000003 0.000001 -0.000000 -49.896700 11.410325 -3.773804 111.899652 -2.479744 -4.027527 -27.658206 -3.123942 -2.945322 2.062830 1.449625 -1.075923 -0.000000 0.000000 0.000000 -110.899685 -11.415228 5.012781 83.204251 -7.378263 -0.681247 -1.499881 4.164998 15.697310 -0.012211 -0.109719 0.262078 -0.000003 -0.000001 0.000001 
216.733841 32.266609 -37.507858 53.392606 199.192932 232.508573 12.004203 1.708266 4.699148 24.205463 6.078915 2.810431 0.000000 0.000000 0.000000 24.205463 6.078914 2.810432 57.480372 -3.925620 -18.447417 -25.082715 -8.467459 21.826290 0.000000 -0.000001 0.000002 0.899513 3.368689 24.482584 0.000000 0.000000 0.000000 -14.606307 -19.867038 -3.868314 0.354731 -104.424344 0.337884 -4.669645 6.592303 21.857626 -3.133903 -3.128525 2.072196 6.459738 5.436985 -6.660186 0.000005 0.000005 -0.000006 0.000003 -0.000000 0.000001 -2.376743 1.613017 -8.894072 0.030288 0.532991 -14.400255 -0.000001 -0.000003 -0.000002 -0.000001 0.000000 -0.000000 -0.361509 0.964855 -21.923719 -0.516452 -1.835421 -26.743240 -0.000000 0.000004 -0.000005 -0.000000 0.000001 0.000001 -0.959567 3.242986 -28.884248 -0.358834 -2.130782 -22.188216 -0.000003 0.000000 0.000005 0.000001 0.000001 0.000002 0.422595 4.920195 -26.484275 -0.811162 -5.131000 -31.831885 0.000000 0.000000 0.000001 0.000001 -0.000000 0.000002 3.074228 7.560849 -12.803213 0.000000 0.000000 0.000000 -40.315458 -8.927964 48.040108 0.085540 116.790689 -0.090080 40.428593 7.346909 -27.686407 9.080912 6.991075 -6.854936 -0.534570 -0.975000 -1.909487 -0.000004 0.000005 0.000004 0.000000 -0.000002 0.000000 -4.050275 -0.157103 -12.989652 0.010745 0.010870 0.000030 -0.000000 -0.000001 -0.000008 0.000001 -0.000002 -0.000003 -3.380164 -2.013615 -16.151145 0.066076 -0.021678 0.003134 0.000002 0.000006 0.000015 -0.000001 0.000000 0.000001 -4.069086 -5.491775 -3.840711 0.001735 0.401759 -0.000069 -0.000000 -0.000002 0.000000 0.000001 0.000001 0.000003 0.468014 -4.535780 10.858773 -0.591300 6.307197 20.037586 -0.000001 -0.000001 0.000000 -0.000002 0.000002 -0.000001 -45.137824 10.134058 -4.503136 111.708365 -2.015237 -3.850614 -27.577445 -4.377016 -5.224464 2.940270 1.444438 -1.088189 -0.000000 -0.000000 -0.000002 -106.419053 -12.999829 5.037705 83.773964 -7.648721 -0.806207 -3.086927 3.786438 14.191644 -0.012190 -0.109716 0.262133 -0.000003 -0.000003 0.000002 
221.141922 28.474281 -37.665363 53.286158 193.719178 237.547778 11.949910 1.635972 4.879809 24.076799 6.263977 3.298522 0.000000 0.000000 0.000000 24.076787 6.263982 3.298498 58.211844 -3.060400 -17.835302 -23.111420 -7.490910 22.712638 -0.000000 0.000000 -0.000002 1.106692 2.229523 21.865683 0.000000 0.000000 0.000000 -8.044705 -21.912755 0.331388 0.504163 -100.515571 0.483609 -7.464042 4.378065 27.133099 -3.030162 -3.261366 1.789487 6.532174 5.246527 -6.961251 0.000003 0.000005 -0.000007 0.000000 0.000000 0.000001 -2.566428 1.768160 -8.498496 0.026909 0.514258 -14.103381 -0.000001 -0.000004 0.000004 0.000000 -0.000000 0.000002 -0.349275 1.015427 -22.255692 -0.529866 -1.867089 -26.970414 -0.000001 0.000007 -0.000006 -0.000003 0.000001 0.000001 -1.000498 3.115060 -28.867706 -0.363711 -2.137679 -22.483349 -0.000006 0.000002 -0.000000 -0.000001 0.000001 -0.000001 0.306750 4.583547 -26.815814 -0.771148 -5.026548 -31.633649 -0.000001 -0.000003 -0.000001 0.000000 -0.000002 0.000003 3.006491 6.979991 -13.209514 0.000000 0.000000 0.000000 -24.883248 -9.196743 51.059311 0.144540 108.653509 -0.132670 49.791618 0.108403 -33.736463 11.232850 7.962257 -5.436350 -0.991326 -0.153139 -1.907212 -0.000008 0.000006 0.000000 -0.000001 0.000000 0.000001 -4.856088 -0.741987 -11.696888 0.000002 -0.423347 0.042119 0.000002 0.000002 -0.000005 -0.000000 -0.000003 -0.000001 -4.002445 -1.861606 -17.305951 0.077298 0.012094 0.000110 0.000002 0.000001 0.000009 -0.000000 0.000001 0.000000 -6.095263 -4.440945 1.307410 -0.008304 0.878754 3.650581 -0.000002 0.000000 -0.000000 -0.000001 0.000000 -0.000001 -1.644615 -1.402745 16.800519 -0.986753 7.222198 25.836229 -0.000001 -0.000001 0.000001 -0.000000 -0.000000 0.000002 -41.603143 9.176356 -5.172413 111.577752 -1.493289 -3.628080 -26.659285 -4.571315 -6.475786 3.049597 1.003066 -0.719918 0.000001 -0.000001 -0.000002 -101.984772 -13.559842 4.624423 83.998076 -7.657947 -0.835363 -4.857954 3.404664 12.813179 -0.012215 -0.109711 0.262098 -0.000003 -0.000000 0.000001 
225.029083 24.712692 -38.013741 52.790372 187.845311 242.968052 11.775875 1.619143 4.925142 23.705771 6.193820 3.640055 0.000000 0.000000 0.000000 23.705751 6.193837 3.640067 58.660274 -2.363936 -16.804106 -22.201532 -6.647920 22.500066 0.000000 0.000001 0.000002 1.311813 1.043483 19.573567 0.000000 0.000000 0.000000 -2.184756 -21.315398 2.321637 0.553180 -99.110423 0.528747 -7.420662 0.340492 36.334844 -1.617112 -3.443764 1.781874 6.670565 5.016643 -7.429570 0.000003 0.000005 -0.000008 -0.000001 0.000000 0.000000 -2.740591 1.901290 -8.112384 0.023667 0.496722 -13.783379 -0.000003 -0.000003 0.000000 -0.000002 0.000000 -0.000000 -0.335101 1.060537 -22.530909 -0.542005 -1.893757 -27.158432 -0.000001 0.000009 -0.000003 -0.000000 0.000001 -0.000002 -1.054350 2.979441 -28.849179 -0.366857 -2.142718 -22.727702 -0.000003 0.000003 -0.000001 -0.000000 -0.000001 0.000002 0.166341 4.266770 -27.072788 -0.732801 -4.937660 -31.470916 0.000001 0.000001 0.000001 -0.000000 -0.000001 0.000001 2.058700 6.641530 -9.781849 0.000000 0.000000 0.000000 -17.790276 -3.547550 48.458703 0.549285 93.753642 -0.520296 44.210927 -8.940487 -42.468938 12.926568 8.813800 -4.083791 -1.071279 -0.171212 -2.021268 0.000000 0.000003 0.000001 -0.000001 -0.000002 -0.000001 -5.540320 -1.397988 -9.917198 0.014411 -0.663877 4.501021 -0.000001 -0.000001 -0.000003 -0.000000 -0.000000 0.000000 -4.569654 -1.700304 -16.210597 0.061352 -0.036733 0.004474 0.000002 0.000004 0.000005 0.000000 0.000000 -0.000001 -8.208147 -3.920790 6.976347 -0.122030 1.728495 11.591774 0.000000 0.000001 -0.000000 -0.000000 0.000003 -0.000001 -4.173467 1.073066 22.333090 -1.431516 8.024070 31.180910 -0.000001 -0.000001 -0.000002 0.000003 -0.000000 0.000002 -40.217861 8.837388 -5.738272 111.299483 -0.902633 -3.352892 -23.905129 -2.924096 -5.713725 0.167570 0.148673 -0.044659 -0.000000 0.000002 0.000004 -98.441406 -12.707672 3.629933 83.875092 -7.380525 -0.757564 -6.456396 3.361359 11.930505 -0.012185 -0.109722 0.262083 -0.000001 0.000000 0.000002 
